<?xml version="1.0" encoding="utf-8"?>
<!-- Generator: Adobe Illustrator 16.0.3, SVG Export Plug-In . SVG Version: 6.00 Build 0)  -->
<!DOCTYPE svg PUBLIC "-//W3C//DTD SVG 1.1//EN" "http://www.w3.org/Graphics/SVG/1.1/DTD/svg11.dtd">
<svg version="1.1" id="Layer_1" xmlns="http://www.w3.org/2000/svg" xmlns:xlink="http://www.w3.org/1999/xlink" x="0px" y="0px"
	 width="595.279px" height="841.89px" viewBox="0 0 595.279 841.89" enable-background="new 0 0 595.279 841.89"
	 xml:space="preserve">
<path fill="#58585A" d="M588.716,458.591c0,38.072-34.406,57.306-74.977,57.306c-26.551,0-50.197-5.938-70.049-16.868
	c5.15-7.462,12.967-20.573,16.605-28.351c13.361,5.544,35.156,12.218,54.824,12.218c19.207,0,34.209-8.014,34.209-18.761
	c0-9.354-3.205-16.658-33.764-26.196c-39.543-12.271-61.891-24.561-61.891-57.792c0-34.939,32.174-54.259,72.914-54.259
	c17.564,0,38.625,3.902,52.34,7.206l-2.049,50.875l-28.969-0.531l0.131-25.304c-4.283-0.945-10.443-1.714-18.971-1.714
	c-22.018,0-37.18,7.593-37.18,20.39c0,9.084,8.672,17.63,39.439,27.522C570.941,417.05,588.716,429.032,588.716,458.591z
	 M188.23,489.412h14.747v23.123h-70.739v-23.123h14.557l-9.019-25.408H66.129l-8.979,25.408h15.522v23.123H6.563v-23.123h15.752
	l49.286-139.245H51.829v-23.103h78.799L188.23,489.412z M127.6,435.364l-25.69-72.447l-25.631,72.447H127.6z M449.814,434.234
	c0,45.378-37.221,81.769-81.756,81.769c-21.98,0-41.91-8.724-56.609-22.833c-10.051,12.139-28.174,22.623-50.41,22.623
	c-26.558,0-53.917-12.901-53.917-52.156v-76.402h-27.766v-28.955h27.766v-31.268h37.83v31.268h42.139v28.955h-42.139v72.671
	c0,15.844,9.729,26.433,23.228,26.433c9.965,0,20.429-4.624,28.173-12.822c-6.398-11.666-10.05-25.014-10.05-39.281
	c0-35.819,23.477-67.1,56.439-77.709c-6.818,10.162-11.352,33.317-11.377,46.101c-6.557,8.631-10.498,19.641-10.498,31.608
	c0,27.8,21.139,50.344,47.191,50.344c9.459,0,18.262-3.021,25.645-8.119c-29.336-12.429-49.963-41.463-49.963-75.331
	c0-18.031,5.859-34.689,15.752-48.195c2.799-0.289,5.662-0.44,8.566-0.44c11.285,0,22.031,2.273,31.807,6.418
	c0,0-0.027,0-0.027,0.013C429.212,371.332,449.814,400.372,449.814,434.234z M415.236,434.234c0-23.161-14.676-42.618-34.645-48.484
	c-1.459,4.842-2.26,10.005-2.26,15.378c0,23.175,14.688,42.618,34.631,48.478C414.447,444.745,415.236,439.594,415.236,434.234z"/>
</svg>
