<?xml version="1.0" encoding="utf-8"?>
<!-- Generator: Adobe Illustrator 16.0.3, SVG Export Plug-In . SVG Version: 6.00 Build 0)  -->
<!DOCTYPE svg PUBLIC "-//W3C//DTD SVG 1.1//EN" "http://www.w3.org/Graphics/SVG/1.1/DTD/svg11.dtd">
<svg version="1.1" id="Layer_1" xmlns="http://www.w3.org/2000/svg" xmlns:xlink="http://www.w3.org/1999/xlink" x="0px" y="0px"
	 width="595.279px" height="841.89px" viewBox="0 0 595.279 841.89" enable-background="new 0 0 595.279 841.89"
	 xml:space="preserve">
<g>
	<g>
		<g>
			<path fill="#39B7E1" d="M303.083,651.158c2.384,0,8.979-17.322,14.701-38.461l54.196-200.016
				c5.722-21.138,8.503-38.461,6.118-38.461c-2.384,0-8.979,17.323-14.701,38.461l-54.195,200.016
				C303.481,633.835,300.699,651.158,303.083,651.158z"/>
		</g>
		<g>
			<path fill="#39B7E1" d="M316.036,651.158c2.622,0,13.747-15.574,24.635-34.566l119.278-207.884
				c10.887-18.992,17.642-34.567,15.019-34.567c-2.622,0-13.747,15.575-24.634,34.567L331.055,616.591
				C320.168,635.583,313.414,651.158,316.036,651.158z"/>
		</g>
		<g>
			<path fill="#39B7E1" d="M289.256,651.158c2.385,0-0.397-17.322-6.118-38.461l-54.196-200.016
				c-5.722-21.138-12.317-38.461-14.701-38.461s0.397,17.323,6.119,38.461l54.195,200.016
				C280.277,633.835,286.872,651.158,289.256,651.158z"/>
		</g>
		<g>
			<path fill="#39B7E1" d="M275.906,651.158c2.622,0-4.133-15.574-15.02-34.566L141.609,408.787
				c-10.887-18.992-22.013-34.567-24.635-34.567s4.133,15.575,15.02,34.567l119.278,207.883
				C262.158,635.583,273.283,651.158,275.906,651.158z"/>
		</g>
	</g>
</g>
<path fill="#39B7E1" d="M492.371,158.31c-11.761,0-23.124,1.987-33.693,5.642c-6.039-71.678-66.116-127.94-139.304-127.94
	c-56.818,0-105.69,33.853-127.543,82.565c-9.934-3.655-20.741-5.642-31.945-5.642c-51.574,0-93.373,41.799-93.373,93.373
	c0,12.159,2.384,23.76,6.596,34.409c-3.576-0.636-7.151-1.033-10.887-1.033C27.813,239.683,0,267.576,0,301.905
	c0,34.33,27.813,62.143,62.143,62.143h430.229c56.818,0,102.909-46.09,102.909-102.909C595.28,204.321,549.19,158.31,492.371,158.31
	z"/>
<path fill="#39B7E1" d="M544.152,753.15c0,32.237-29.139,48.51-63.49,48.51c-22.489,0-42.531-5.027-59.32-14.259
	c4.365-6.345,10.963-17.445,14.037-24.034c11.338,4.705,29.792,10.353,46.447,10.353c16.263,0,28.968-6.786,28.968-15.89
	c0-7.923-2.717-14.114-28.587-22.174c-33.494-10.412-52.415-20.824-52.415-48.956c0-29.592,27.235-45.956,61.741-45.956
	c14.896,0,32.73,3.315,44.34,6.103l-1.733,43.089l-24.553-0.444l0.12-21.432c-3.626-0.799-8.842-1.466-16.061-1.466
	c-18.666,0-31.506,6.431-31.506,17.279c0,7.685,7.371,14.926,33.417,23.308C529.103,717.957,544.152,728.097,544.152,753.15z
	 M204.981,779.23h12.488v19.594h-59.903V779.23h12.319l-7.627-21.503h-60.683L93.97,779.23h13.146v19.594H51.129V779.23h13.338
	l41.741-117.905H89.46v-19.58h66.739L204.981,779.23z M153.643,733.464l-21.762-61.354l-21.716,61.354H153.643z M426.514,732.513
	c0,38.429-31.524,69.231-69.24,69.231c-18.607,0-35.499-7.363-47.94-19.313c-8.507,10.277-23.853,19.15-42.693,19.15
	c-22.487,0-45.651-10.922-45.651-44.178v-64.713h-23.521v-24.519h23.521v-26.479h32.039v26.479h35.682v24.519h-35.682v61.563
	c0,13.417,8.237,22.386,19.663,22.386c8.438,0,17.299-3.933,23.857-10.847c-5.415-9.893-8.514-21.214-8.514-33.281
	c0-30.343,19.89-56.823,47.804-65.821c-5.774,8.604-9.613,28.229-9.63,39.043c-5.546,7.313-8.893,16.638-8.893,26.778
	c0,23.542,17.902,42.633,39.958,42.633c8.017,0,15.465-2.549,21.716-6.889c-24.841-10.505-42.302-35.107-42.302-63.791
	c0-15.265,4.96-29.371,13.325-40.815c2.395-0.241,4.807-0.378,7.261-0.378c9.563,0,18.658,1.928,26.938,5.44
	c0,0-0.017,0.008-0.017,0.02C409.061,679.232,426.514,703.826,426.514,732.513z M397.24,732.513
	c0-19.622-12.434-36.103-29.342-41.066c-1.239,4.098-1.919,8.477-1.919,13.02c0,19.623,12.441,36.099,29.342,41.058
	C396.57,741.422,397.24,737.048,397.24,732.513z"/>
</svg>
