<?xml version="1.0" encoding="utf-8"?>
<!-- Generator: Adobe Illustrator 16.0.3, SVG Export Plug-In . SVG Version: 6.00 Build 0)  -->
<!DOCTYPE svg PUBLIC "-//W3C//DTD SVG 1.1//EN" "http://www.w3.org/Graphics/SVG/1.1/DTD/svg11.dtd">
<svg version="1.1" id="Layer_1" xmlns="http://www.w3.org/2000/svg" xmlns:xlink="http://www.w3.org/1999/xlink" x="0px" y="0px"
	 width="44px" height="21px" viewBox="0 0 44 21" enable-background="new 0 0 44 21" xml:space="preserve">
<path fill="#FFFFFF" d="M43.637,13.299c0,2.83-2.558,4.26-5.573,4.26c-1.974,0-3.731-0.441-5.207-1.254
	c0.383-0.555,0.964-1.529,1.234-2.107c0.993,0.412,2.613,0.908,4.075,0.908c1.428,0,2.543-0.596,2.543-1.395
	c0-0.695-0.238-1.238-2.51-1.947c-2.939-0.912-4.601-1.826-4.601-4.297c0-2.597,2.392-4.033,5.42-4.033
	c1.306,0,2.871,0.291,3.891,0.536l-0.152,3.782l-2.153-0.04l0.01-1.881c-0.318-0.07-0.776-0.128-1.41-0.128
	c-1.637,0-2.764,0.564-2.764,1.516c0,0.676,0.645,1.311,2.932,2.047C42.315,10.211,43.637,11.101,43.637,13.299z M13.867,15.59
	h1.096v1.719H9.705V15.59h1.082l-0.67-1.889H4.791L4.123,15.59h1.154v1.719H0.363V15.59h1.171L5.197,5.238H3.729V3.521h5.857
	L13.867,15.59z M9.36,11.572L7.451,6.187l-1.906,5.386H9.36z M33.312,11.488c0,3.373-2.767,6.078-6.077,6.078
	c-1.634,0-3.115-0.648-4.208-1.697c-0.747,0.902-2.095,1.682-3.747,1.682c-1.975,0-4.008-0.959-4.008-3.877v-5.68h-2.064V5.842
	h2.064V3.518h2.813v2.324h3.132v2.152h-3.132v5.402c0,1.178,0.723,1.965,1.727,1.965c0.74,0,1.518-0.344,2.094-0.953
	c-0.476-0.867-0.747-1.859-0.747-2.92c0-2.663,1.745-4.988,4.195-5.777c-0.507,0.756-0.844,2.477-0.846,3.428
	c-0.487,0.641-0.78,1.459-0.78,2.35c0,2.066,1.571,3.742,3.508,3.742c0.703,0,1.357-0.225,1.906-0.604
	c-2.181-0.924-3.714-3.082-3.714-5.6c0-1.341,0.436-2.579,1.171-3.583c0.208-0.021,0.421-0.032,0.637-0.032
	c0.839,0,1.638,0.168,2.364,0.477c0,0-0.002,0-0.002,0.001C31.78,6.813,33.312,8.971,33.312,11.488z M30.741,11.488
	c0-1.723-1.091-3.168-2.575-3.604c-0.108,0.36-0.168,0.743-0.168,1.144c0,1.723,1.092,3.168,2.574,3.604
	C30.683,12.27,30.741,11.887,30.741,11.488z"/>
</svg>
