<?xml version="1.0" encoding="utf-8"?>
<!-- Generator: Adobe Illustrator 16.0.3, SVG Export Plug-In . SVG Version: 6.00 Build 0)  -->
<!DOCTYPE svg PUBLIC "-//W3C//DTD SVG 1.1//EN" "http://www.w3.org/Graphics/SVG/1.1/DTD/svg11.dtd">
<svg version="1.1" id="Layer_1" xmlns="http://www.w3.org/2000/svg" xmlns:xlink="http://www.w3.org/1999/xlink" x="0px" y="0px"
	 width="595.279px" height="841.89px" viewBox="0 0 595.279 841.89" enable-background="new 0 0 595.279 841.89"
	 xml:space="preserve">
<g id="layer1">
	<g id="g3052">
		<path id="path3059" fill="#FFFFFF" d="M494.402,329.056c-2.996,0-4.993,2.997-4.993,5.993l0,0c0,0.999,0,0.999,0,1.998
			c0,1.998,0.998,3.995,0.998,4.994c0.999,3.995,0.999,6.992,0.999,9.988c0,0.999-0.999,1.998-1.997,2.997v1.998
			c-2.997,0.999-6.992,0.999-9.988,1.998c-13.983,2.996-25.969,9.988-34.958,19.976c-0.999-0.999-1.997-0.999-1.997-1.998
			c-0.999,0-1.998,0.999-2.997-0.999c-2.996-1.998-4.993-3.995-6.991-6.992c-0.999-0.999-1.998-2.996-3.995-3.995
			c-0.999-0.999-0.999-0.999-0.999-0.999c-0.999-0.999-2.996-1.998-3.995-1.998c-1.997,0-2.996,0.999-3.995,1.998
			c-1.997,1.998-0.999,5.993,1.998,7.991l0,0c0.998,0.999,0.998,0.999,0.998,0.999c1.998,0.999,2.997,1.998,4.994,2.997
			c1.998,2.996,4.994,4.994,6.992,6.991c0.998,0.999,0.998,2.997,0.998,2.997l1.998,1.998c-8.989,13.983-12.984,30.962-10.986,48.94
			l-1.998,1c-0.999,0.998-1.998,1.996-1.998,2.996c-2.996,0.998-5.992,0.998-9.987,1.998c-1.998,0-2.996,0-4.994,0.998
			c-0.999,0-0.999,0-1.998,0.998l0,0l0,0c-2.996,1-4.993,3.996-4.993,6.992c0.998,2.996,3.995,4.994,6.991,3.994l0,0l0,0
			c0.999,0,0.999,0,1.998-0.998c1.997-0.998,2.996-0.998,4.993-1.998c3.995-0.998,6.992-2.996,8.989-2.996c0.999,0,2.997,1,2.997,1
			l2.996-1c4.994,16.98,16.979,30.963,30.962,38.953l-0.998,2.996c0-0.998,0,0,0,1c-0.999,2.996-2.997,5.992-4.994,8.988
			c-0.999,1.998-1.998,2.996-2.996,3.996c0,0.998-0.999,0.998-0.999,1.996c-1.998,2.996-0.999,5.994,1.997,7.99
			c2.997,1,5.993,0,6.992-2.996l0,0l0,0c0-0.998,0.999-0.998,0.999-1.998c0.998-1.996,0.998-2.996,1.997-4.992
			c1.998-3.996,1.998-6.992,3.995-9.988c0.999-1,1.998-1,1.998-1l0.998-1.996c11.986,4.994,25.969,5.992,39.952,2.996
			c2.996-1,5.993-1.998,8.989-2.996c0.999,0.998,0.999,1.996,0.999,1.996c0.998,1,1.997,1,2.996,1.998
			c1.997,2.996,2.996,5.992,3.995,8.99c0.999,1.996,0.999,2.996,1.997,4.992c0,1,0.999,1,0.999,1.998
			c1.998,2.996,4.994,3.996,6.992,2.996c2.996-0.998,3.995-4.994,1.997-7.99c0-0.998-0.999-0.998-0.999-1.996
			c-0.998-1.998-1.997-2.998-2.996-3.996c-1.998-2.996-3.995-5.992-4.994-8.988c0-1.998,0-1.998,0.999-2.998l-0.999-1.996
			c14.982-8.99,25.969-22.973,30.963-38.953c0.999,0,1.997,0.998,1.997,0.998c0.999-0.998,1.998-0.998,2.997-0.998
			c2.996,0.998,5.992,1.998,8.988,2.996c1.998,0.998,2.997,1.998,4.994,1.998c0.999,0,0.999,0,1.998,0.998l0,0l0,0
			c2.996,0.998,5.992-0.998,6.991-3.994c0.999-2.998-1.997-5.994-4.994-6.992c-0.998,0-0.998-0.998-1.997-0.998
			c-1.998-1-3.995-1-4.994-1c-3.995-0.998-6.991-0.998-9.988-1.998c-0.998-0.998-1.997-1.996-1.997-2.996v-0.998
			c0.999-7.99,0.999-16.98-0.999-24.97c-1.997-8.989-5.992-16.979-9.988-22.972c0.999-0.999,1.998-1.998,1.998-1.998
			c0-0.999,0-1.998,0.999-2.997c1.997-1.998,4.994-3.995,7.99-5.993c1.997-0.999,2.996-1.998,4.994-2.996
			c0.998,0,0.998-0.999,0.998-0.999c2.997-1.998,2.997-5.993,1.998-7.99c-1.998-1.998-5.993-2.997-7.99-0.999
			c-0.999,0.999-0.999,0.999-0.999,0.999c-1.997,0.999-2.996,2.996-3.995,3.995c-2.996,2.997-4.994,4.994-6.991,6.992
			c-0.999,0.999-2.997,0.999-2.997,0.999l-1.997,1.998c-11.985-11.985-27.967-19.976-44.945-21.973c0-0.999,0-1.998,0-2.997
			c-0.999-0.999-1.998-0.999-1.998-2.997c0-2.996,0-5.993,0.999-9.988c0-1.998,0.998-2.996,0.998-4.994c0-0.999,0-0.999,0-1.998
			C500.395,333.051,497.399,329.056,494.402,329.056L494.402,329.056z M488.409,371.005l-1.998,28.965l0,0
			c0,2.997-1.997,4.994-4.993,4.994c-0.999,0-1.998-0.999-2.997-0.999l0,0l-22.972-16.979c6.991-6.992,15.98-11.986,26.967-14.982
			C484.414,372.004,486.411,372.004,488.409,371.005z M501.394,371.005c11.985,1.998,23.971,6.992,31.961,15.981l-22.972,16.979l0,0
			c-1.998,1.998-4.994,0.999-6.992-0.999c-0.998-0.999-0.998-1.998-0.998-2.997l0,0L501.394,371.005z M447.459,397.973
			l20.975,18.977l0,0c1.997,1.998,1.997,4.993,0.998,6.991c-0.998,1-1.997,1.998-2.996,1.998l0,0l-26.968,6.992
			C437.471,419.946,440.467,407.961,447.459,397.973z M542.344,397.973c2.996,4.994,5.993,10.987,6.991,16.979
			c1.998,5.993,1.998,11.985,0.999,17.979l-27.966-7.99l0,0c-2.997-1-3.995-2.998-3.995-5.994c0-0.999,0.998-1.998,1.997-2.996l0,0
			L542.344,397.973L542.344,397.973z M490.406,417.949h8.989l4.994,6.992l-1.997,7.99l-7.991,3.994l-7.99-3.994l-1.997-7.99
			L490.406,417.949z M518.373,440.921c0.998,0,0.998,0,0.998,0l0,0l27.967,4.994c-3.995,10.986-11.985,21.973-21.974,27.965
			l-10.986-25.969l0,0c-0.999-1.996,0-4.992,1.997-5.992C517.374,441.919,517.374,440.921,518.373,440.921L518.373,440.921z
			 M470.431,441.919c1.998,0,3.995,1.998,4.994,3.996c0,0.998,0,1.996-0.999,2.996l0,0L463.44,474.88
			c-9.988-5.994-17.979-15.98-21.974-27.967l27.966-4.994l0,0C470.431,441.919,470.431,441.919,470.431,441.919L470.431,441.919z
			 M494.402,452.906c0.999,0,1.998,0,1.998,1c0.999,0.998,1.997,0.998,1.997,1.996l0,0l12.984,24.971
			c-1.997,0.998-3.995,0.998-5.992,1.998c-9.988,2.996-20.975,1.998-30.963-1.998l12.984-24.971l0,0
			C491.406,453.906,493.404,452.906,494.402,452.906z"/>
	</g>
</g>
<path fill="#FFFFFF" d="M381.416,446.481c0,24.285-21.951,36.543-47.829,36.543c-16.942,0-32.042-3.787-44.689-10.74
	c3.289-4.781,8.259-13.143,10.575-18.105c8.541,3.543,22.443,7.797,34.989,7.797c12.253,0,21.823-5.111,21.823-11.969
	c0-5.969-2.047-10.633-21.534-16.705c-25.234-7.844-39.487-15.688-39.487-36.881c0-22.291,20.517-34.621,46.512-34.621
	c11.222,0,24.657,2.498,33.402,4.598l-1.304,32.461l-18.497-0.334l0.09-16.146c-2.731-0.602-6.661-1.104-12.099-1.104
	c-14.063,0-23.735,4.844-23.735,13.018c0,5.789,5.553,11.244,25.175,17.559C370.08,419.967,381.416,427.608,381.416,446.481z
	 M125.903,466.127h9.408v14.762H90.184v-14.762h9.28l-5.746-16.199H48.003l-5.729,16.199h9.904v14.762H10v-14.762h10.048
	l31.445-88.822H38.877v-14.75h50.277L125.903,466.127z M87.228,431.651L70.834,385.43l-16.359,46.221H87.228z M292.794,430.934
	c0,28.951-23.749,52.154-52.162,52.154c-14.018,0-26.743-5.545-36.116-14.549c-6.408,7.742-17.969,14.428-32.163,14.428
	c-16.941,0-34.392-8.229-34.392-33.281v-48.752h-17.719v-18.469h17.719v-19.949h24.136v19.949h26.881v18.469h-26.881v46.379
	c0,10.107,6.206,16.865,14.814,16.865c6.356,0,13.032-2.963,17.972-8.172c-4.079-7.451-6.414-15.98-6.414-25.072
	c0-22.859,14.984-42.807,36.013-49.586c-4.351,6.48-7.242,21.266-7.255,29.414c-4.177,5.508-6.699,12.533-6.699,20.172
	c0,17.734,13.488,32.117,30.103,32.117c6.04,0,11.65-1.92,16.359-5.189c-18.714-7.912-31.868-26.447-31.868-48.057
	c0-11.5,3.736-22.127,10.038-30.748c1.805-0.182,3.622-0.285,5.47-0.285c7.204,0,14.056,1.453,20.294,4.1
	c0,0-0.013,0.006-0.013,0.014C279.646,390.795,292.794,409.323,292.794,430.934z M270.741,430.934
	c0-14.781-9.367-27.197-22.104-30.936c-0.934,3.086-1.446,6.383-1.446,9.807c0,14.781,9.372,27.195,22.104,30.932
	C270.235,437.645,270.741,434.35,270.741,430.934z"/>
</svg>
