<?xml version="1.0" encoding="utf-8"?>
<!-- Generator: Adobe Illustrator 16.0.3, SVG Export Plug-In . SVG Version: 6.00 Build 0)  -->
<!DOCTYPE svg PUBLIC "-//W3C//DTD SVG 1.1//EN" "http://www.w3.org/Graphics/SVG/1.1/DTD/svg11.dtd">
<svg version="1.1" id="Layer_1" xmlns="http://www.w3.org/2000/svg" xmlns:xlink="http://www.w3.org/1999/xlink" x="0px" y="0px"
	 width="595.279px" height="841.89px" viewBox="0 0 595.279 841.89" enable-background="new 0 0 595.279 841.89"
	 xml:space="preserve">
<path fill="#FFFFFF" d="M575.066,693.966c-6.992-3.994-14.982-3.994-22.973-1.996c-0.998-7.99-5.992-14.982-11.984-19.977
	l-1.998-1.998l-1.998,1.998c-3.994,4.994-4.994,12.984-4.994,18.977c0,3.996,1.998,8.99,4.994,12.984
	c-1.998,0.998-3.994,1.998-6.992,2.996c-3.994,1-8.988,1.998-13.982,1.998h-9.988v-19.977h-19.975v-38.953h-23.971v19.977h-38.953
	v19.977h-19.977v19.975h-16.98v2.996c-0.998,9.988,0,19.977,4.994,28.967l1.998,3.994l0,0
	c11.986,20.975,32.961,28.965,56.932,28.965c44.945,0,81.9-19.977,98.881-61.926c10.986,1,22.973-2.996,28.965-13.982l0.998-2.996
	L575.066,693.966L575.066,693.966z M426.245,672.992h16.98v16.98h-16.98V672.992L426.245,672.992z M447.22,741.91
	c0,2.996-1.996,4.994-4.994,4.994c-2.996,0-4.992-1.998-4.992-4.994s1.996-4.994,4.992-4.994
	C445.224,736.916,447.22,738.914,447.22,741.91z M426.245,691.97h16.98v16.979h-16.98V691.97L426.245,691.97z M407.269,691.97h16.98
	v16.979h-16.98V691.97L407.269,691.97z M449.218,770.875c-23.971,0-36.955-7.99-47.941-18.979c2.996,0,5.992,0,8.988,0
	c1.998,0,4.994,0,6.992,0c5.992,0,10.986-0.998,15.98-1.996c3.996,7.99,9.988,15.98,21.975,20.975
	C453.214,770.875,451.216,770.875,449.218,770.875L449.218,770.875z M463.2,708.949h-16.979V691.97H463.2V708.949L463.2,708.949z
	 M463.2,689.972h-16.979v-16.98H463.2V689.972L463.2,689.972z M482.179,708.949h-16.98V691.97h16.98V708.949L482.179,708.949z
	 M482.179,689.972h-16.98v-16.98h16.98V689.972L482.179,689.972z M482.179,669.996h-16.98v-16.979h16.98V669.996z M502.154,708.949
	h-16.979V691.97h16.979V708.949L502.154,708.949z M442.226,737.914h1l-1,1c0,0.998,1,0.998,1,0.998s0.998,0,0.998-0.998v0.998
	c0,1.998-0.998,2.996-2.996,2.996s-2.996-0.998-2.996-2.996C439.23,739.912,440.23,737.914,442.226,737.914L442.226,737.914z"/>
<path fill="#FFFFFF" d="M381.416,735.982c0,24.285-21.951,36.543-47.829,36.543c-16.942,0-32.042-3.787-44.689-10.74
	c3.289-4.781,8.259-13.143,10.575-18.105c8.541,3.543,22.443,7.797,34.989,7.797c12.253,0,21.823-5.111,21.823-11.969
	c0-5.969-2.047-10.633-21.534-16.705c-25.234-7.844-39.487-15.688-39.487-36.881c0-22.291,20.517-34.621,46.512-34.621
	c11.222,0,24.657,2.498,33.402,4.598l-1.304,32.461l-18.497-0.334l0.09-16.146c-2.731-0.602-6.661-1.104-12.099-1.104
	c-14.063,0-23.735,4.844-23.735,13.018c0,5.789,5.553,11.244,25.175,17.559C370.08,709.468,381.416,717.109,381.416,735.982z
	 M125.903,755.628h9.408v14.762H90.184v-14.762h9.28l-5.746-16.199H48.003l-5.729,16.199h9.904v14.762H10v-14.762h10.048
	l31.445-88.822H38.877v-14.75h50.277L125.903,755.628z M87.228,721.152l-16.395-46.221l-16.359,46.221H87.228z M292.794,720.435
	c0,28.951-23.749,52.154-52.162,52.154c-14.018,0-26.743-5.545-36.116-14.549c-6.408,7.742-17.969,14.428-32.163,14.428
	c-16.941,0-34.392-8.229-34.392-33.281v-48.752h-17.719v-18.469h17.719v-19.949h24.136v19.949h26.881v18.469h-26.881v46.379
	c0,10.107,6.206,16.865,14.814,16.865c6.356,0,13.032-2.963,17.972-8.172c-4.079-7.451-6.414-15.98-6.414-25.072
	c0-22.859,14.984-42.807,36.013-49.586c-4.351,6.48-7.242,21.266-7.255,29.414c-4.177,5.508-6.699,12.533-6.699,20.172
	c0,17.734,13.488,32.117,30.103,32.117c6.04,0,11.65-1.92,16.359-5.189c-18.714-7.912-31.868-26.447-31.868-48.057
	c0-11.5,3.736-22.127,10.038-30.748c1.805-0.182,3.622-0.285,5.47-0.285c7.204,0,14.056,1.453,20.294,4.1
	c0,0-0.013,0.006-0.013,0.014C279.646,680.296,292.794,698.824,292.794,720.435z M270.741,720.435
	c0-14.781-9.367-27.197-22.104-30.936c-0.934,3.086-1.446,6.383-1.446,9.807c0,14.781,9.372,27.195,22.104,30.932
	C270.235,727.146,270.741,723.851,270.741,720.435z"/>
</svg>
