<?xml version="1.0" encoding="utf-8"?>
<!-- Generator: Adobe Illustrator 16.0.3, SVG Export Plug-In . SVG Version: 6.00 Build 0)  -->
<!DOCTYPE svg PUBLIC "-//W3C//DTD SVG 1.1//EN" "http://www.w3.org/Graphics/SVG/1.1/DTD/svg11.dtd">
<svg version="1.1" id="Layer_1" xmlns="http://www.w3.org/2000/svg" xmlns:xlink="http://www.w3.org/1999/xlink" x="0px" y="0px"
	 width="595.279px" height="841.89px" viewBox="0 0 595.279 841.89" enable-background="new 0 0 595.279 841.89"
	 xml:space="preserve">
<g>
	<path opacity="0.1" fill="#FFFFFF" enable-background="new    " d="M539.361,726.927v-36.955L507.4,707.951L539.361,726.927"/>
	<path fill="#FFFFFF" d="M537.364,686.976l-31.961-17.979v36.955L537.364,686.976"/>
	<path fill="#FFFFFF" d="M501.407,704.953v-36.955l-31.962,17.979L501.407,704.953"/>
	<path fill="#FFFFFF" d="M499.409,665.001l-31.962-17.979v36.957L499.409,665.001"/>
	<path opacity="0.1" fill="#FFFFFF" enable-background="new    " d="M537.364,730.921l-31.961-17.977V749.9L537.364,730.921"/>
	<path opacity="0.1" fill="#FFFFFF" enable-background="new    " d="M501.407,748.9v-36.955l-31.962,17.979L501.407,748.9"/>
	<path fill="#FFFFFF" d="M575.318,708.949l-31.962-17.979v36.957L575.318,708.949"/>
	<path fill="#FFFFFF" d="M463.452,682.98v-36.955l-31.961,17.979L463.452,682.98"/>
	<path opacity="0.1" fill="#FFFFFF" enable-background="new    " d="M499.409,752.896l-31.962-17.979v36.955L499.409,752.896"/>
	<path fill="#FFFFFF" d="M463.452,770.875v-36.955l-31.961,17.977L463.452,770.875"/>
	<path opacity="0.1" fill="#FFFFFF" enable-background="new    " d="M499.409,708.949l-31.962-17.979v36.957L499.409,708.949"/>
	<path fill="#FFFFFF" d="M539.361,682.98v-36.955L507.4,664.003L539.361,682.98"/>
	<path opacity="0.1" fill="#FFFFFF" enable-background="new    " d="M505.403,625.05v36.955l31.961-17.979L505.403,625.05"/>
	<path opacity="0.1" fill="#FFFFFF" enable-background="new    " d="M469.446,643.029l31.962,17.979v-36.955L469.446,643.029"/>
	<path opacity="0.1" fill="#FFFFFF" enable-background="new    " d="M537.364,774.869l-31.961-17.979v36.957L537.364,774.869"/>
	<path opacity="0.1" fill="#FFFFFF" enable-background="new    " d="M501.407,792.847v-36.955l-31.962,17.979L501.407,792.847"/>
	<path fill="#FFFFFF" d="M577.316,748.9v-36.955l-31.962,17.979L577.316,748.9"/>
	<path fill="#FFFFFF" d="M463.452,726.927v-36.955l-31.961,17.979L463.452,726.927"/>
	<path fill="#FFFFFF" d="M461.455,730.921l-31.962-17.977V749.9L461.455,730.921"/>
	<path fill="#FFFFFF" d="M577.316,704.953v-36.955l-31.962,17.979L577.316,704.953"/>
	<path fill="#FFFFFF" d="M575.318,665.001l-31.962-17.979v36.957L575.318,665.001"/>
	<path fill="#FFFFFF" d="M575.318,752.896l-31.962-17.979v36.955L575.318,752.896"/>
	<path opacity="0.1" fill="#FFFFFF" enable-background="new    " d="M539.361,770.875v-36.955L507.4,751.896L539.361,770.875"/>
	<path fill="#FFFFFF" d="M461.455,686.976l-31.962-17.979v36.955L461.455,686.976"/>
</g>
<path fill="#FFFFFF" d="M381.416,735.982c0,24.285-21.951,36.543-47.829,36.543c-16.942,0-32.042-3.787-44.689-10.74
	c3.289-4.781,8.259-13.143,10.575-18.105c8.541,3.543,22.443,7.797,34.989,7.797c12.253,0,21.823-5.111,21.823-11.969
	c0-5.969-2.047-10.633-21.534-16.705c-25.234-7.844-39.487-15.688-39.487-36.881c0-22.291,20.517-34.621,46.512-34.621
	c11.222,0,24.657,2.498,33.402,4.598l-1.304,32.461l-18.497-0.334l0.09-16.146c-2.731-0.602-6.661-1.104-12.099-1.104
	c-14.063,0-23.735,4.844-23.735,13.018c0,5.789,5.553,11.244,25.175,17.559C370.08,709.468,381.416,717.109,381.416,735.982z
	 M125.903,755.628h9.408v14.762H90.184v-14.762h9.28l-5.746-16.199H48.003l-5.729,16.199h9.904v14.762H10v-14.762h10.048
	l31.445-88.822H38.877v-14.75h50.277L125.903,755.628z M87.228,721.152l-16.395-46.221l-16.359,46.221H87.228z M292.794,720.435
	c0,28.951-23.749,52.154-52.162,52.154c-14.018,0-26.743-5.545-36.116-14.549c-6.408,7.742-17.969,14.428-32.163,14.428
	c-16.941,0-34.392-8.229-34.392-33.281v-48.752h-17.719v-18.469h17.719v-19.949h24.136v19.949h26.881v18.469h-26.881v46.379
	c0,10.107,6.206,16.865,14.814,16.865c6.356,0,13.032-2.963,17.972-8.172c-4.079-7.451-6.414-15.98-6.414-25.072
	c0-22.859,14.984-42.807,36.013-49.586c-4.351,6.48-7.242,21.266-7.255,29.414c-4.177,5.508-6.699,12.533-6.699,20.172
	c0,17.734,13.488,32.117,30.103,32.117c6.04,0,11.65-1.92,16.359-5.189c-18.714-7.912-31.868-26.447-31.868-48.057
	c0-11.5,3.736-22.127,10.038-30.748c1.805-0.182,3.622-0.285,5.47-0.285c7.204,0,14.056,1.453,20.294,4.1
	c0,0-0.013,0.006-0.013,0.014C279.646,680.296,292.794,698.824,292.794,720.435z M270.741,720.435
	c0-14.781-9.367-27.197-22.104-30.936c-0.934,3.086-1.446,6.383-1.446,9.807c0,14.781,9.372,27.195,22.104,30.932
	C270.235,727.146,270.741,723.851,270.741,720.435z"/>
</svg>
