<?xml version="1.0" encoding="utf-8"?>
<!-- Generator: Adobe Illustrator 16.0.3, SVG Export Plug-In . SVG Version: 6.00 Build 0)  -->
<!DOCTYPE svg PUBLIC "-//W3C//DTD SVG 1.1//EN" "http://www.w3.org/Graphics/SVG/1.1/DTD/svg11.dtd">
<svg version="1.1" id="Layer_1" xmlns="http://www.w3.org/2000/svg" xmlns:xlink="http://www.w3.org/1999/xlink" x="0px" y="0px"
	 width="595.279px" height="841.89px" viewBox="0 0 595.279 841.89" enable-background="new 0 0 595.279 841.89"
	 xml:space="preserve">
<g>
	<rect x="0.595" y="575.718" fill="none" width="595.28" height="142.867"/>
	<path fill="#394D54" d="M156.559,601.316c-2.381-2.977-5.357-5.359-8.93-6.549c-3.571-1.191-7.143-1.785-10.715-1.785
		c-4.167,0-8.334,0.594-11.905,2.381c-3.572,1.785-6.548,3.57-9.524,6.547c-2.382,2.977-4.763,5.953-5.953,9.525
		s-1.786,7.738-1.786,11.906c0,4.762,0.596,8.928,1.786,12.5s2.977,7.143,5.953,10.119c2.381,2.977,5.357,4.764,8.929,6.549
		c3.572,1.785,7.144,2.381,11.906,2.381c4.762,0,8.334-0.596,11.905-2.381s6.548-4.168,8.334-7.143l11.905,8.332
		c-3.571,4.764-8.334,8.334-13.691,10.717c-5.357,2.381-11.905,4.166-19.049,4.166c-6.548,0-12.501-1.189-17.858-3.572
		c-5.357-2.381-10.12-5.357-14.287-8.928c-4.167-4.168-7.143-8.334-9.524-14.287c-2.381-5.357-3.571-11.311-3.571-17.859
		c0-6.547,1.19-13.096,3.571-18.453c2.382-5.357,5.357-10.119,9.524-13.691s8.93-6.549,14.287-8.93
		c5.357-1.785,11.311-2.977,17.858-2.977c2.977,0,5.357,0,8.334,0.596s5.953,1.191,8.334,2.381c2.977,1.191,5.357,2.381,7.738,4.168
		c2.382,1.785,4.167,3.57,5.953,5.953L156.559,601.316z"/>
	<path fill="#394D54" d="M229.779,665.605h-13.691v-8.93l0,0c-1.191,2.977-3.572,5.357-6.549,7.74
		c-2.977,2.381-6.548,2.977-11.31,2.977c-3.572,0-7.144-0.596-9.525-1.787c-2.381-1.189-4.762-2.977-6.548-5.357
		c-1.785-2.381-2.977-4.762-3.571-7.143c-0.596-2.381-1.19-5.357-1.19-8.334v-35.717h14.286v31.549c0,1.787,0,3.572,0.596,5.357
		c0,1.787,0.595,3.572,1.786,4.764c0.595,1.189,1.785,2.977,2.976,3.57c1.191,0.596,2.977,1.191,5.358,1.191
		c2.381,0,4.166-0.596,5.952-1.191c1.786-0.594,2.977-1.785,4.167-3.57c1.19-1.787,1.786-2.977,2.381-4.764
		c0.596-1.785,0.596-3.57,0.596-5.953v-31.549h14.287V665.605L229.779,665.605z"/>
	<path fill="#394D54" d="M277.996,623.935c-1.191-1.785-2.977-2.977-5.358-4.166c-2.381-1.191-4.762-1.787-7.143-1.787
		c-2.382,0-4.167,0.596-6.549,1.191c-2.381,0.596-2.976,2.381-2.976,4.762s1.19,3.572,2.976,4.764
		c1.786,1.189,5.357,1.785,9.524,2.975c2.382,0.596,4.167,1.191,6.549,1.787c2.381,0.596,4.167,1.785,5.952,2.977
		c1.786,1.189,2.977,2.977,4.167,4.762s1.786,4.168,1.786,7.143c0,3.572-0.596,6.549-1.786,8.93s-2.977,4.168-5.357,5.953
		s-4.762,2.381-7.738,3.572c-2.977,0.596-5.953,1.189-8.93,1.189c-4.167,0-8.929-0.594-13.096-2.381
		c-4.167-1.785-7.739-4.166-10.715-7.143l9.524-8.93c1.785,1.785,3.571,3.572,5.952,5.357c2.382,1.785,5.357,1.785,8.334,1.785
		c1.19,0,2.382,0,2.977-0.594c1.19,0,1.786-0.596,2.977-1.191s1.786-1.189,2.381-1.785c0.596-0.596,0.596-1.787,0.596-2.977
		c0-2.381-1.19-4.168-2.977-5.357c-2.381-1.191-5.357-1.787-9.524-2.977c-2.381-0.596-4.167-1.191-6.548-1.787
		c-1.786-0.594-3.572-1.785-5.357-2.975c-1.786-1.191-2.977-2.977-3.572-4.764c-0.595-1.785-1.19-4.166-1.19-6.547
		c0-2.977,0.596-5.953,1.786-8.334s2.977-4.168,5.357-5.953c2.381-1.191,4.762-2.381,7.144-2.977
		c2.381-0.596,5.357-1.191,8.334-1.191c4.167,0,8.334,0.596,11.905,2.383c4.167,1.189,7.144,3.57,9.524,6.547L277.996,623.935z"/>
	<path fill="#394D54" d="M291.688,619.769v-11.311h10.119v-16.668h13.691v16.668h14.287v11.311h-14.287v26.787
		c0,2.381,0.596,4.762,1.19,6.549c1.19,1.785,2.977,2.381,5.953,2.381c1.19,0,1.786,0,2.977,0s2.381-0.596,2.976-1.191l0.596,11.311
		c-1.19,0.596-2.977,0.596-4.762,1.191c-1.786,0-3.572,0.596-4.763,0.596c-3.571,0-7.144-0.596-9.524-1.787
		c-2.381-1.189-4.167-2.381-5.953-4.166c-1.785-1.787-2.381-4.168-2.977-6.549c-0.595-2.381-0.595-4.762-0.595-7.738v-26.787h-8.929
		V619.769z"/>
	<path fill="#394D54" d="M336.928,637.033c0-4.764,0.596-8.93,2.382-12.502c1.785-3.572,3.571-6.549,6.548-9.523
		c2.977-2.383,5.953-4.764,10.12-5.953c3.571-1.191,7.738-2.381,11.905-2.381s8.334,0.594,11.905,2.381
		c3.572,1.189,7.144,3.57,10.12,5.953c2.977,2.381,4.762,5.951,6.548,9.523s2.381,7.738,2.381,12.502
		c0,4.762-0.595,8.928-2.381,12.5s-3.571,6.549-6.548,9.525c-2.977,2.381-5.953,4.762-10.12,6.547
		c-3.571,1.787-7.738,2.381-11.905,2.381s-8.334-0.594-11.905-2.381c-3.572-1.785-7.144-3.572-10.12-6.547
		c-2.977-2.383-4.763-5.953-6.548-9.525C337.524,645.96,336.928,641.199,336.928,637.033z M351.215,637.033
		c0,2.381,0.596,4.166,1.19,6.547c0.596,2.381,1.786,4.168,2.977,5.953s2.977,2.977,5.357,4.166
		c1.786,1.191,4.763,1.787,7.144,1.787c2.977,0,5.357-0.596,7.144-1.787c1.785-1.189,3.571-2.381,5.357-4.166
		c1.19-1.785,2.381-3.572,2.977-5.953c0.595-2.381,1.19-4.166,1.19-6.547c0-2.383-0.596-4.168-1.19-6.549
		c-0.596-2.381-1.786-4.168-2.977-5.953s-2.977-2.977-5.357-4.166c-1.786-1.191-4.763-1.787-7.144-1.787
		c-2.977,0-5.357,0.596-7.144,1.787c-1.786,1.189-3.571,2.381-5.357,4.166c-1.19,1.785-2.381,3.572-2.977,5.953
		C351.811,632.269,351.215,634.65,351.215,637.033z"/>
	<path fill="#394D54" d="M480.987,606.673c3.571,0,7.143,0.594,9.524,1.785c2.381,1.189,4.762,2.977,6.548,5.357
		s2.977,4.762,3.571,7.143c0.596,2.977,1.19,5.357,1.19,8.334v35.717h-13.691V633.46c0-1.787,0-3.572-0.595-5.357
		c0-1.787-0.596-3.572-1.786-4.764c-0.595-1.189-1.786-2.975-2.977-3.57c-1.19-1.191-2.977-1.191-5.357-1.191
		s-4.167,0.596-5.952,1.191c-1.786,1.189-2.977,2.381-4.167,3.57c-1.191,1.787-1.786,2.977-2.382,4.764
		c-0.595,1.785-0.595,4.762-0.595,6.547v30.955h-14.287V631.08c0-3.572-0.595-6.549-2.381-8.93s-4.167-3.572-7.739-3.572
		c-2.381,0-4.166,0.596-5.357,1.191c-1.785,1.189-2.976,2.381-4.167,3.57c-1.19,1.191-1.785,2.977-2.381,4.764
		c-0.595,1.785-0.595,3.57-0.595,5.953v31.549h-14.287v-57.146h13.691v8.93l0,0c0.596-1.191,1.19-2.977,2.381-4.168
		c1.19-1.189,2.382-2.381,3.572-3.57c1.19-1.191,2.977-1.787,4.762-2.383c1.786-0.594,4.167-0.594,6.548-0.594
		c4.167,0,8.334,1.189,11.311,2.977c2.977,1.785,5.357,4.762,6.548,7.738c1.786-3.572,4.167-5.953,7.739-8.334
		C473.247,607.863,476.82,606.673,480.987,606.673z"/>
</g>
<g>
	<g>
		<g>
			<path fill="#39B7E1" d="M301.211,459.638c1.191,0,4.167-7.738,6.549-17.264l24.406-89.887c2.381-9.524,3.571-17.263,2.977-17.263
				c-0.596,0-4.167,7.739-6.549,17.263l-25.001,89.887C301.211,451.9,300.021,459.638,301.211,459.638z"/>
		</g>
		<g>
			<path fill="#39B7E1" d="M306.569,459.638c1.191,0,5.953-7.143,11.311-15.477l53.575-93.459
				c4.763-8.334,7.739-15.478,6.549-15.478c-1.191,0-5.953,7.144-11.311,15.478l-53.575,93.459
				C308.355,452.496,305.378,459.638,306.569,459.638z"/>
		</g>
		<g>
			<path fill="#39B7E1" d="M294.663,459.638c1.191,0,0-7.738-2.976-17.264l-23.812-89.887c-2.381-9.524-5.357-17.263-6.548-17.263
				s0,7.739,2.976,17.263l24.407,89.887C290.496,451.9,293.473,459.638,294.663,459.638z"/>
		</g>
		<g>
			<path fill="#39B7E1" d="M288.711,459.638c1.19,0-1.786-7.143-6.549-15.477l-53.575-93.459
				c-4.762-8.334-10.119-15.478-11.31-15.478s1.785,7.144,6.548,15.478l53.575,93.459
				C282.758,452.496,287.521,459.638,288.711,459.638z"/>
		</g>
	</g>
</g>
<path fill="#39B7E1" d="M385.741,238.194c-5.357,0-10.12,0.595-14.882,2.381c-2.977-32.145-29.765-57.147-62.505-57.147
	c-25.597,0-47.622,15.477-57.146,36.907c-4.167-1.786-9.524-2.381-14.287-2.381c-23.216,0-41.669,18.454-41.669,41.669
	c0,5.357,1.19,10.715,2.977,15.478c-1.786,0-2.977-0.596-4.763-0.596c-15.478,0-27.979,12.501-27.979,27.979
	c0,15.477,12.501,27.978,27.979,27.978h192.871c25.597,0,46.432-20.834,46.432-46.432
	C432.173,259.029,411.338,238.194,385.741,238.194z"/>
<path id="Cloud_6_" fill="#FFFFFF" stroke="#39B7E1" stroke-width="5" stroke-miterlimit="10" d="M249.204,479.871
	c-0.118-1.095-0.163-2.213-0.163-3.33c0-19.486,15.789-35.271,35.271-35.271c15.118,0,27.979,9.525,32.996,22.906
	c3.323-3.646,8.064-5.977,13.386-5.977c10.034,0,18.166,8.127,18.166,18.166c0,1.185-0.124,2.337-0.349,3.459
	c13.386,2.207,23.628,13.748,23.628,27.743c0,15.598-12.63,28.217-28.217,28.217h-89.588c-15.587,0-28.217-12.619-28.217-28.217
	C226.112,493.748,236.078,482.297,249.204,479.871z"/>
<path id="Cloud_inside_2_" fill="#39B7E1" d="M265.938,492.333c-0.085-0.779-0.117-1.574-0.117-2.37
	c0-13.877,11.244-25.116,25.116-25.116c10.765,0,19.924,6.783,23.496,16.311c2.368-2.596,5.742-4.256,9.532-4.256
	c7.146,0,12.937,5.787,12.937,12.937c0,0.844-0.089,1.664-0.249,2.464c9.531,1.571,16.825,9.789,16.825,19.755
	c0,11.107-8.994,20.093-20.094,20.093H269.59c-11.1,0-20.093-8.985-20.093-20.093C249.493,502.215,256.59,494.062,265.938,492.333z"
	/>
<g>
	<g>
		<rect x="307.238" y="505.219" fill="#FFFFFF" width="21.496" height="21.496"/>
		<path fill="#39B7E1" d="M327.734,506.219v19.496h-19.496v-19.496H327.734 M328.881,504.219H307.09
			c-0.471,0-0.853,0.381-0.853,0.853v21.791c0,0.471,0.382,0.853,0.853,0.853h21.791c0.471,0,0.853-0.382,0.853-0.853v-21.791
			C329.734,504.6,329.352,504.219,328.881,504.219L328.881,504.219z"/>
	</g>
</g>
<g>
	<g>
		<polygon fill="#FFFFFF" points="287.42,514.967 287.377,485.403 316.942,485.358 316.986,514.922 316.942,514.967 		"/>
		<path fill="#39B7E1" d="M315.986,486.358v27.609h-27.608v-27.609H315.986 M316.942,484.358H287.42
			c-0.576,0-1.043,0.468-1.043,1.045v29.52c0,0.577,0.467,1.045,1.043,1.045h29.521c0.576,0,1.044-0.468,1.044-1.045v-29.52
			C317.986,484.826,317.518,484.358,316.942,484.358L316.942,484.358z"/>
	</g>
</g>
<g>
	<g>
		<rect x="260.881" y="458.862" fill="#FFFFFF" width="43.578" height="43.578"/>
		<path fill="#39B7E1" d="M303.459,459.862v41.578h-41.578v-41.578H303.459 M304.556,457.862h-43.772
			c-0.498,0-0.902,0.404-0.902,0.903v43.772c0,0.498,0.404,0.902,0.902,0.902h43.772c0.499,0,0.903-0.404,0.903-0.902v-43.772
			C305.459,458.266,305.055,457.862,304.556,457.862L304.556,457.862z"/>
	</g>
</g>
<g>
	<path fill="#39B7E1" d="M267.228,481.748v-1.881l9.79-5.023h0.721v2.061l-7.703,3.839v0.052l7.703,3.891v2.086h-0.721
		L267.228,481.748z"/>
	<path fill="#39B7E1" d="M284.718,470.207h2.035l-6.234,20.353h-2.035L284.718,470.207z"/>
	<path fill="#39B7E1" d="M287.602,484.71l7.677-3.813v-0.078l-7.677-3.864v-2.112h0.695l9.815,5.023v1.881l-9.815,5.023h-0.695
		V484.71z"/>
</g>
</svg>
