<?xml version="1.0" encoding="utf-8"?>
<!-- Generator: Adobe Illustrator 16.0.3, SVG Export Plug-In . SVG Version: 6.00 Build 0)  -->
<!DOCTYPE svg PUBLIC "-//W3C//DTD SVG 1.1//EN" "http://www.w3.org/Graphics/SVG/1.1/DTD/svg11.dtd">
<svg version="1.1" id="Layer_1" xmlns="http://www.w3.org/2000/svg" xmlns:xlink="http://www.w3.org/1999/xlink" x="0px" y="0px"
	 width="595.279px" height="841.89px" viewBox="0 0 595.279 841.89" enable-background="new 0 0 595.279 841.89"
	 xml:space="preserve">
<g>
	<path fill="#2980B9" d="M300.021,455.164c1.191,0,3.572-7.738,6.549-16.668l24.406-88.697c2.977-8.93,3.571-16.668,2.977-16.668
		c-1.19,0-3.572,7.738-6.549,16.668l-24.406,88.697C300.616,447.423,299.426,455.164,300.021,455.164L300.021,455.164z"/>
	<path fill="#2980B9" d="M305.974,455.164c1.19,0,5.953-7.145,10.715-15.479l52.98-92.268c4.762-8.334,7.738-15.479,6.548-15.479
		s-5.953,7.145-10.715,15.479l-52.98,92.268C307.76,448.019,304.783,455.164,305.974,455.164L305.974,455.164z"/>
	<path fill="#2980B9" d="M294.069,455.164c1.19,0,0-7.738-2.977-16.668l-23.812-88.697c-2.977-8.93-5.357-16.668-6.548-16.668
		s0,7.738,2.977,16.668l24.406,88.697C289.902,447.423,292.878,455.164,294.069,455.164L294.069,455.164z"/>
	<path fill="#2980B9" d="M288.115,455.164c1.19,0-1.786-7.145-6.548-15.479l-52.98-92.268c-4.762-8.334-9.524-15.479-10.715-15.479
		s1.786,7.145,6.548,15.479l52.98,92.268C282.162,448.019,286.925,455.164,288.115,455.164L288.115,455.164z"/>
	<g>
		<path fill="#DDEBF4" d="M193.466,331.939c-17.263,0-31.55-14.285-31.55-31.549s13.691-30.955,30.954-31.551
			c-0.595-3.57-1.785-7.143-1.785-11.309c0-25.002,20.239-45.242,45.241-45.242c4.167,0,8.334,0.596,12.501,1.785
			c11.311-22.025,33.931-35.717,58.337-35.717c32.146,0,60.124,24.406,64.886,55.361c3.572-0.596,7.738-1.785,11.311-1.785
			c27.383,0,49.408,22.025,49.408,49.408s-22.025,49.408-49.408,49.408L193.466,331.939L193.466,331.939z"/>
		<path fill="#2980B9" d="M307.164,182.525c32.74,0,58.933,25.002,61.909,56.551c4.763-1.785,9.524-2.977,14.882-2.977
			c25.002,0,45.837,20.24,45.837,45.838c0,25.596-20.239,45.836-45.837,45.836H193.466c-15.478,0-27.383-12.5-27.383-27.383
			s12.501-27.383,27.383-27.383c1.786,0,3.571,0,4.762,0.596c-1.785-4.764-2.976-10.121-2.976-15.479
			c0-23.215,18.453-41.67,41.669-41.67c4.763,0,9.524,0.596,14.287,2.383C260.733,197.406,282.162,182.525,307.164,182.525
			 M307.164,174.787c-25.002,0-48.218,13.691-60.719,35.121c-3.571-0.596-7.144-1.191-10.119-1.191
			c-27.383,0-48.813,22.025-48.813,48.813c0,2.977,0.596,4.764,0.596,7.74c-16.668,2.977-29.765,17.262-29.765,35.121
			c0,19.645,15.478,35.121,35.122,35.121h190.489c29.765,0,52.98-23.811,52.98-52.98c0-29.764-23.812-52.979-52.98-52.979
			c-2.977,0-5.953,0.594-8.334,0.594C368.479,198.597,339.905,174.787,307.164,174.787L307.164,174.787z"/>
	</g>
	
		<line fill="none" stroke="#2980B9" stroke-width="1.2876" stroke-miterlimit="10" x1="217.278" y1="332.535" x2="283.948" y2="450.996"/>
	
		<line fill="none" stroke="#2980B9" stroke-width="1.2876" stroke-miterlimit="10" x1="260.733" y1="332.535" x2="294.069" y2="455.164"/>
	
		<line fill="none" stroke="#2980B9" stroke-width="1.2876" stroke-miterlimit="10" x1="300.021" y1="455.164" x2="333.357" y2="332.535"/>
	
		<line fill="none" stroke="#2980B9" stroke-width="1.2876" stroke-miterlimit="10" x1="376.217" y1="332.535" x2="309.545" y2="450.996"/>
</g>
<g>
	<path fill="#666666" d="M204.478,628.984v9.525h-35.121v-60.123h11.311v51.193h23.811V628.984z"/>
	<path fill="#666666" d="M268.174,608.15c0,4.166-0.595,8.334-2.381,12.5c-1.19,3.572-3.572,7.145-5.953,9.525
		c-2.381,2.977-5.952,4.762-9.524,6.549c-3.571,1.785-7.738,2.381-12.501,2.381c-4.762,0-8.929-0.596-12.501-2.381
		c-3.571-1.787-7.144-3.572-9.524-6.549s-4.762-5.953-5.953-9.525c-1.19-3.57-2.381-7.738-2.381-12.5
		c0-4.168,0.596-8.334,2.381-12.502c1.191-3.57,3.572-7.143,5.953-9.523c2.977-2.977,5.953-4.762,9.524-6.549
		c3.572-1.785,7.739-2.381,12.501-2.381c2.977,0,5.953,0.596,8.334,1.191c2.977,0.596,5.357,1.785,7.144,2.977
		c2.381,1.189,4.167,2.977,5.953,4.762c1.785,1.785,3.571,4.166,4.762,5.953c1.19,2.381,2.381,4.762,2.977,7.143
		C267.579,602.792,268.174,605.173,268.174,608.15z M256.268,608.15c0-3.572-0.596-6.549-1.19-8.93
		c-0.596-2.381-2.382-4.762-3.572-6.547c-1.785-1.787-3.571-2.977-5.953-4.168c-2.381-1.191-4.762-1.191-7.738-1.191
		s-5.357,0.596-7.738,1.191c-2.381,1.191-4.167,2.381-5.953,4.168c-1.785,1.785-2.977,4.166-3.571,6.547
		c-0.596,2.381-1.19,5.357-1.19,8.93s0.595,6.549,1.19,8.93c0.595,2.381,2.381,4.762,3.571,6.547
		c1.19,1.787,3.572,2.977,5.953,4.168c2.381,1.189,4.762,1.189,7.738,1.189s5.357-0.594,7.738-1.189
		c2.382-1.191,4.168-2.381,5.953-4.168c1.786-1.785,2.977-4.166,3.572-6.547C256.268,614.699,256.268,611.722,256.268,608.15z"/>
	<path fill="#666666" d="M319.368,624.222c0.594,0,1.189,0,1.785,0.596l4.166,4.762c-2.381,2.977-5.357,5.357-8.928,7.145
		c-3.572,1.785-7.738,2.381-13.098,2.381c-4.762,0-8.333-0.596-11.905-2.381c-3.571-1.787-6.548-3.572-8.929-6.549
		c-2.382-2.977-4.763-5.953-5.953-9.525c-1.19-3.57-1.786-7.738-1.786-12.5s0.596-8.93,2.381-12.502
		c1.191-3.57,3.572-7.143,5.953-9.523c2.381-2.977,5.953-4.762,9.524-6.549c3.572-1.785,7.74-2.381,11.906-2.381
		c4.168,0,8.334,0.596,11.906,2.381c3.57,1.191,6.547,3.572,8.928,5.953l-3.57,5.357c0,0.596-0.596,0.596-0.596,0.596
		c-0.596,0-0.596,0.596-1.191,0.596c-0.594,0-0.594,0-1.189-0.596c-0.596,0-1.191-0.596-1.191-0.596
		c-0.596-0.596-1.189-0.596-1.785-1.189c-0.596-0.596-1.785-0.596-2.381-1.191c-1.191-0.596-1.787-0.596-2.977-0.596
		c-1.191,0-2.381-0.596-4.168-0.596c-2.977,0-5.357,0.596-7.143,1.191c-2.381,1.191-4.167,2.381-5.954,4.166
		c-1.785,1.787-2.976,4.168-3.571,6.549s-1.19,5.357-1.19,8.93s0.595,6.547,1.19,8.93c0.596,2.381,2.381,4.762,4.167,6.547
		c1.786,1.787,3.572,2.977,5.954,4.168c2.381,1.189,4.762,1.189,7.143,1.189c1.785,0,2.977,0,4.168,0
		c1.189,0,2.381-0.594,3.57-0.594c1.191-0.596,1.787-0.596,2.977-1.191c1.191-0.596,1.787-1.191,2.977-2.381l0.596-0.596
		C318.773,624.222,318.773,624.222,319.368,624.222z"/>
	<path fill="#666666" d="M384.849,638.509h-8.93c-1.191,0-1.785,0-2.381-0.596s-1.191-1.189-1.191-1.785l-4.762-12.502h-25.002
		l-4.762,12.502c0,0.596-0.596,1.189-1.191,1.785c-0.594,0.596-1.189,0.596-2.381,0.596h-8.93l23.813-60.123h11.311L384.849,638.509
		z M364.609,615.888l-7.143-20.238c-0.596-0.596-0.596-1.787-1.191-2.977c-0.596-1.191-0.596-2.381-1.189-4.168
		c-0.596,1.191-0.596,2.977-1.191,4.168c-0.596,1.189-0.596,2.381-1.191,2.977l-7.143,20.238H364.609z"/>
	<path fill="#666666" d="M425.923,628.984v9.525h-35.121v-60.123h11.311v51.193h23.811V628.984z"/>
</g>
<g>
	<path id="Cloud_6_" fill="#FFFFFF" stroke="#2980B9" stroke-width="5" stroke-miterlimit="10" d="M247.716,471.871
		c-0.118-1.095-0.163-2.213-0.163-3.33c0-19.486,15.789-35.271,35.271-35.271c15.118,0,27.979,9.525,32.996,22.906
		c3.323-3.646,8.064-5.977,13.386-5.977c10.034,0,18.166,8.127,18.166,18.166c0,1.185-0.124,2.337-0.349,3.459
		c13.386,2.207,23.628,13.748,23.628,27.743c0,15.598-12.63,28.217-28.217,28.217h-89.588c-15.587,0-28.217-12.619-28.217-28.217
		C224.623,485.748,234.59,474.297,247.716,471.871z"/>
	<path id="Cloud_inside_2_" fill="#DDEBF4" d="M264.449,484.333c-0.085-0.779-0.117-1.574-0.117-2.37
		c0-13.877,11.244-25.116,25.116-25.116c10.765,0,19.924,6.783,23.496,16.311c2.368-2.596,5.742-4.256,9.532-4.256
		c7.146,0,12.937,5.787,12.937,12.937c0,0.844-0.089,1.664-0.249,2.464c9.531,1.571,16.825,9.789,16.825,19.755
		c0,11.107-8.994,20.093-20.094,20.093h-63.794c-11.1,0-20.093-8.985-20.093-20.093
		C248.005,494.215,255.102,486.062,264.449,484.333z"/>
	<g>
		<g>
			<rect x="305.749" y="497.219" fill="#FFFFFF" width="21.496" height="21.496"/>
			<path fill="#2980B9" d="M326.245,498.219v19.496h-19.496v-19.496H326.245 M327.393,496.219h-21.791
				c-0.471,0-0.853,0.381-0.853,0.853v21.791c0,0.471,0.382,0.853,0.853,0.853h21.791c0.471,0,0.853-0.382,0.853-0.853v-21.791
				C328.245,496.6,327.864,496.219,327.393,496.219L327.393,496.219z"/>
		</g>
	</g>
	<g>
		<g>
			<polygon fill="#FFFFFF" points="285.932,506.967 285.889,477.403 315.453,477.358 315.497,506.922 315.453,506.967 			"/>
			<path fill="#2980B9" d="M314.497,478.358v27.609h-27.608v-27.609H314.497 M315.453,476.358h-29.521
				c-0.576,0-1.043,0.468-1.043,1.045v29.52c0,0.577,0.467,1.045,1.043,1.045h29.521c0.576,0,1.044-0.468,1.044-1.045v-29.52
				C316.497,476.826,316.03,476.358,315.453,476.358L315.453,476.358z"/>
		</g>
	</g>
	<g>
		<g>
			<rect x="259.393" y="450.862" fill="#FFFFFF" width="43.578" height="43.578"/>
			<path fill="#2980B9" d="M301.971,451.862v41.578h-41.578v-41.578H301.971 M303.068,449.862h-43.772
				c-0.498,0-0.902,0.404-0.902,0.903v43.772c0,0.498,0.404,0.902,0.902,0.902h43.772c0.499,0,0.903-0.404,0.903-0.902v-43.772
				C303.971,450.266,303.567,449.862,303.068,449.862L303.068,449.862z"/>
		</g>
	</g>
	<g>
		<path fill="#808080" d="M265.74,473.748v-1.881l9.79-5.023h0.721v2.061l-7.703,3.839v0.052l7.703,3.891v2.086h-0.721
			L265.74,473.748z"/>
		<path fill="#808080" d="M283.23,462.207h2.035l-6.234,20.353h-2.035L283.23,462.207z"/>
		<path fill="#808080" d="M286.114,476.71l7.677-3.813v-0.078l-7.677-3.864v-2.112h0.695l9.815,5.023v1.881l-9.815,5.023h-0.695
			V476.71z"/>
	</g>
</g>
</svg>
