<?xml version="1.0" encoding="utf-8"?>
<!-- Generator: Adobe Illustrator 16.0.3, SVG Export Plug-In . SVG Version: 6.00 Build 0)  -->
<!DOCTYPE svg PUBLIC "-//W3C//DTD SVG 1.1//EN" "http://www.w3.org/Graphics/SVG/1.1/DTD/svg11.dtd">
<svg version="1.1" id="Layer_1" xmlns="http://www.w3.org/2000/svg" xmlns:xlink="http://www.w3.org/1999/xlink" x="0px" y="0px"
	 width="595.279px" height="841.89px" viewBox="0 0 595.279 841.89" enable-background="new 0 0 595.279 841.89"
	 xml:space="preserve">
<path fill="#58585A" d="M453.657,440.675c0,20.403-18.441,30.701-40.182,30.701c-14.234,0-26.92-3.182-37.545-9.023
	c2.764-4.018,6.939-11.041,8.883-15.212c7.178,2.978,18.857,6.552,29.396,6.552c10.293,0,18.334-4.295,18.334-10.056
	c0-5.015-1.719-8.933-18.092-14.034c-21.199-6.59-33.174-13.18-33.174-30.985c0-18.727,17.236-29.086,39.076-29.086
	c9.428,0,20.715,2.099,28.063,3.863l-1.096,27.271l-15.539-0.28l0.074-13.565c-2.295-0.506-5.596-0.928-10.164-0.928
	c-11.814,0-19.941,4.069-19.941,10.937c0,4.864,4.666,9.447,21.15,14.752C444.134,418.401,453.657,424.82,453.657,440.675z
	 M238.994,457.181h7.904v12.401h-37.913v-12.401h7.796l-4.827-13.609h-38.407l-4.813,13.609h8.32v12.401h-35.435v-12.401h8.441
	l26.418-74.622h-10.6v-12.392h42.239L238.994,457.181z M206.503,428.216l-13.773-38.832l-13.744,38.832H206.503z M379.204,427.614
	c0,24.323-19.951,43.816-43.822,43.816c-11.777,0-22.468-4.658-30.342-12.223c-5.384,6.504-15.097,12.121-27.021,12.121
	c-14.233,0-28.894-6.913-28.894-27.96V402.41H234.24v-15.516h14.886v-16.76h20.277v16.76h22.583v15.516h-22.583v38.964
	c0,8.491,5.214,14.169,12.445,14.169c5.34,0,10.949-2.489,15.099-6.865c-3.426-6.261-5.388-13.426-5.388-21.064
	c0-19.205,12.588-35.962,30.256-41.658c-3.655,5.445-6.085,17.866-6.096,24.711c-3.51,4.627-5.628,10.529-5.628,16.947
	c0,14.899,11.331,26.982,25.29,26.982c5.074,0,9.787-1.612,13.744-4.359c-15.723-6.647-26.773-22.219-26.773-40.374
	c0-9.662,3.139-18.589,8.434-25.833c1.516-0.152,3.043-0.239,4.596-0.239c6.053,0,11.809,1.221,17.049,3.444
	c0,0-0.012,0.005-0.012,0.011C368.157,393.893,379.204,409.458,379.204,427.614z M360.677,427.614
	c0-12.418-7.869-22.849-18.57-25.99c-0.785,2.593-1.215,5.363-1.215,8.239c0,12.417,7.873,22.847,18.57,25.987
	C360.251,433.251,360.677,430.484,360.677,427.614z"/>
</svg>
